# xmcd CD database file
#
# Track frame offsets:
#	150
#	42386
#	57308
#	69900
#	91252
#	117637
#	143402
#	170165
#	205771
#	234617
#	251089
#	275821
#	296159
#
# Disc length: 4169 seconds
#
# Revision: 0
# Processed by: cddbd v1.5.2PL0 Copyright (c) Steve Scherf et al.
# Submitted via: CDex 1.70beta2
#
DISCID=cc10470d
DTITLE=Miles Davis - Cool&Collected
DYEAR=2006
DGENRE=Jazz
TTITLE0=So What
TTITLE1=Summertime
TTITLE2=Generique
TTITLE3=Stella By Starlight
TTITLE4=Fran-Dance (Alternate Take)
TTITLE5=Milestones
TTITLE6='Round Midnight
TTITLE7=Bye Bye Blackbird
TTITLE8=Seven Steps to Heaven
TTITLE9=Time After Time
TTITLE10=E.S.P.
TTITLE11=Human Nature
TTITLE12=It's About That Time (Radio Edit)
EXTD=YEAR: 2006
EXTT0=
EXTT1=
EXTT2=
EXTT3=
EXTT4=
EXTT5=
EXTT6=
EXTT7=
EXTT8=
EXTT9=
EXTT10=
EXTT11=
EXTT12=
PLAYORDER=
